<svg width="32" height="42" viewBox="0 0 32 42" fill="none" xmlns="http://www.w3.org/2000/svg">
<g id="Arrow 1" filter="url(#filter0_d_101_3)">
<path d="M17.5 2C17.5 1.17157 16.8284 0.5 16 0.5C15.1716 0.5 14.5 1.17157 14.5 2H17.5ZM14.9393 33.0607C15.5251 33.6464 16.4749 33.6464 17.0607 33.0607L26.6066 23.5147C27.1924 22.9289 27.1924 21.9792 26.6066 21.3934C26.0208 20.8076 25.0711 20.8076 24.4853 21.3934L16 29.8787L7.51472 21.3934C6.92893 20.8076 5.97918 20.8076 5.3934 21.3934C4.80761 21.9792 4.80761 22.9289 5.3934 23.5147L14.9393 33.0607ZM14.5 2L14.5 32H17.5V2H14.5Z" fill="black"/>
</g>
<defs>
<filter id="filter0_d_101_3" x="0.95406" y="0.5" width="30.0919" height="41" filterUnits="userSpaceOnUse" color-interpolation-filters="sRGB">
<feFlood flood-opacity="0" result="BackgroundImageFix"/>
<feColorMatrix in="SourceAlpha" type="matrix" values="0 0 0 0 0 0 0 0 0 0 0 0 0 0 0 0 0 0 127 0" result="hardAlpha"/>
<feOffset dy="4"/>
<feGaussianBlur stdDeviation="2"/>
<feComposite in2="hardAlpha" operator="out"/>
<feColorMatrix type="matrix" values="0 0 0 0 0 0 0 0 0 0 0 0 0 0 0 0 0 0 0.25 0"/>
<feBlend mode="normal" in2="BackgroundImageFix" result="effect1_dropShadow_101_3"/>
<feBlend mode="normal" in="SourceGraphic" in2="effect1_dropShadow_101_3" result="shape"/>
</filter>
</defs>
</svg>
